<?xml version="1.0" encoding="UTF-8" standalone="no"?>
<svg
   xmlns:dc="http://purl.org/dc/elements/1.1/"
   xmlns:cc="http://creativecommons.org/ns#"
   xmlns:rdf="http://www.w3.org/1999/02/22-rdf-syntax-ns#"
   xmlns:svg="http://www.w3.org/2000/svg"
   xmlns="http://www.w3.org/2000/svg"
   xmlns:sodipodi="http://sodipodi.sourceforge.net/DTD/sodipodi-0.dtd"
   xmlns:inkscape="http://www.inkscape.org/namespaces/inkscape"
   height="768"
   width="1024"
   id="svg2"
   version="1.1"
   inkscape:version="0.48.2 r9819"
   sodipodi:docname="infinite_system.svg">
  <metadata
     id="metadata26767">
    <rdf:RDF>
      <cc:Work
         rdf:about="">
        <dc:format>image/svg+xml</dc:format>
        <dc:type
           rdf:resource="http://purl.org/dc/dcmitype/StillImage" />
        <dc:title></dc:title>
      </cc:Work>
    </rdf:RDF>
  </metadata>
  <defs
     id="defs26765">
    <inkscape:perspective
       sodipodi:type="inkscape:persp3d"
       inkscape:vp_x="1598 : -668 : 1"
       inkscape:vp_y="0 : 1000 : 0"
       inkscape:vp_z="2588 : -492 : 1"
       inkscape:persp3d-origin="2076 : -620 : 1"
       id="perspective8107" />
    <inkscape:perspective
       sodipodi:type="inkscape:persp3d"
       inkscape:vp_x="606 : 480 : 1"
       inkscape:vp_y="0 : 1000 : 0"
       inkscape:vp_z="1596 : 656 : 1"
       inkscape:persp3d-origin="1084 : 528 : 1"
       id="perspective8035" />
  </defs>
  <sodipodi:namedview
     pagecolor="#ffffff"
     bordercolor="#666666"
     borderopacity="1"
     objecttolerance="10"
     gridtolerance="10"
     guidetolerance="10"
     inkscape:pageopacity="0"
     inkscape:pageshadow="2"
     inkscape:window-width="1920"
     inkscape:window-height="1152"
     id="namedview26763"
     showgrid="false"
     inkscape:zoom="0.5"
     inkscape:cx="1138.1588"
     inkscape:cy="182.67552"
     inkscape:window-x="0"
     inkscape:window-y="0"
     inkscape:window-maximized="1"
     inkscape:current-layer="svg2" />
  <g
     id="is.particle"
     inkscape:label="#g7866">
    <path
       inkscape:label="#path3003"
       transform="translate(67.15097,90)"
       d="m 469.48682,243.76253 a 24.637793,24.637793 0 1 1 -49.27558,0 24.637793,24.637793 0 1 1 49.27558,0 z"
       sodipodi:ry="24.637793"
       sodipodi:rx="24.637793"
       sodipodi:cy="243.76253"
       sodipodi:cx="444.84903"
       id="is.particle.0"
       style="fill:#00000a;fill-opacity:1;stroke:#000000;stroke-width:1;stroke-linecap:butt;stroke-linejoin:round;stroke-miterlimit:4;stroke-opacity:1;stroke-dasharray:none;stroke-dashoffset:0"
       sodipodi:type="arc" />
    <path
       inkscape:label="#path3005"
       sodipodi:type="arc"
       style="fill:#00000a;fill-opacity:1;stroke:#000000;stroke-width:1;stroke-linecap:butt;stroke-linejoin:round;stroke-miterlimit:4;stroke-opacity:1;stroke-dasharray:none;stroke-dashoffset:0"
       id="is.particle.-1"
       sodipodi:cx="444.84903"
       sodipodi:cy="243.76253"
       sodipodi:rx="24.637793"
       sodipodi:ry="24.637793"
       d="m 469.48682,243.76253 a 24.637793,24.637793 0 1 1 -49.27558,0 24.637793,24.637793 0 1 1 49.27558,0 z"
       transform="translate(-12.84903,90)" />
    <path
       inkscape:label="#path3007"
       sodipodi:type="arc"
       style="fill:#00000a;fill-opacity:1;stroke:#000000;stroke-width:1;stroke-linecap:butt;stroke-linejoin:round;stroke-miterlimit:4;stroke-opacity:1;stroke-dasharray:none;stroke-dashoffset:0"
       id="is.particle.1"
       sodipodi:cx="444.84903"
       sodipodi:cy="243.76253"
       sodipodi:rx="24.637793"
       sodipodi:ry="24.637793"
       d="m 469.48682,243.76253 a 24.637793,24.637793 0 1 1 -49.27558,0 24.637793,24.637793 0 1 1 49.27558,0 z"
       transform="translate(147.15097,90)" />
    <path
       inkscape:label="#path3009"
       sodipodi:type="arc"
       style="fill:#00000a;fill-opacity:1;stroke:#000000;stroke-width:1;stroke-linecap:butt;stroke-linejoin:round;stroke-miterlimit:4;stroke-opacity:1;stroke-dasharray:none;stroke-dashoffset:0"
       id="is.particle.-3"
       sodipodi:cx="444.84903"
       sodipodi:cy="243.76253"
       sodipodi:rx="24.637793"
       sodipodi:ry="24.637793"
       d="m 469.48682,243.76253 a 24.637793,24.637793 0 1 1 -49.27558,0 24.637793,24.637793 0 1 1 49.27558,0 z"
       transform="translate(-172.84903,90)" />
    <path
       inkscape:label="#path3011"
       transform="translate(-252.84903,90)"
       d="m 469.48682,243.76253 a 24.637793,24.637793 0 1 1 -49.27558,0 24.637793,24.637793 0 1 1 49.27558,0 z"
       sodipodi:ry="24.637793"
       sodipodi:rx="24.637793"
       sodipodi:cy="243.76253"
       sodipodi:cx="444.84903"
       id="is.particle.-4"
       style="fill:#00000a;fill-opacity:1;stroke:#000000;stroke-width:1;stroke-linecap:butt;stroke-linejoin:round;stroke-miterlimit:4;stroke-opacity:1;stroke-dasharray:none;stroke-dashoffset:0"
       sodipodi:type="arc" />
    <path
       inkscape:label="#path3013"
       transform="translate(-92.84903,90)"
       d="m 469.48682,243.76253 a 24.637793,24.637793 0 1 1 -49.27558,0 24.637793,24.637793 0 1 1 49.27558,0 z"
       sodipodi:ry="24.637793"
       sodipodi:rx="24.637793"
       sodipodi:cy="243.76253"
       sodipodi:cx="444.84903"
       id="is.particle.-2"
       style="fill:#00000a;fill-opacity:1;stroke:#000000;stroke-width:1;stroke-linecap:butt;stroke-linejoin:round;stroke-miterlimit:4;stroke-opacity:1;stroke-dasharray:none;stroke-dashoffset:0"
       sodipodi:type="arc" />
    <path
       inkscape:label="#path3015"
       transform="translate(-412.84903,90)"
       d="m 469.48682,243.76253 a 24.637793,24.637793 0 1 1 -49.27558,0 24.637793,24.637793 0 1 1 49.27558,0 z"
       sodipodi:ry="24.637793"
       sodipodi:rx="24.637793"
       sodipodi:cy="243.76253"
       sodipodi:cx="444.84903"
       id="is.particle.-6"
       style="fill:#00000a;fill-opacity:1;stroke:#000000;stroke-width:1;stroke-linecap:butt;stroke-linejoin:round;stroke-miterlimit:4;stroke-opacity:1;stroke-dasharray:none;stroke-dashoffset:0"
       sodipodi:type="arc" />
    <path
       inkscape:label="#path3017"
       sodipodi:type="arc"
       style="fill:#00000a;fill-opacity:1;stroke:#000000;stroke-width:1;stroke-linecap:butt;stroke-linejoin:round;stroke-miterlimit:4;stroke-opacity:1;stroke-dasharray:none;stroke-dashoffset:0"
       id="is.particle.-7"
       sodipodi:cx="444.84903"
       sodipodi:cy="243.76253"
       sodipodi:rx="24.637793"
       sodipodi:ry="24.637793"
       d="m 469.48682,243.76253 a 24.637793,24.637793 0 1 1 -49.27558,0 24.637793,24.637793 0 1 1 49.27558,0 z"
       transform="translate(-492.84903,90)" />
    <path
       inkscape:label="#path3019"
       sodipodi:type="arc"
       style="fill:#00000a;fill-opacity:1;stroke:#000000;stroke-width:1;stroke-linecap:butt;stroke-linejoin:round;stroke-miterlimit:4;stroke-opacity:1;stroke-dasharray:none;stroke-dashoffset:0"
       id="is.particle.-5"
       sodipodi:cx="444.84903"
       sodipodi:cy="243.76253"
       sodipodi:rx="24.637793"
       sodipodi:ry="24.637793"
       d="m 469.48682,243.76253 a 24.637793,24.637793 0 1 1 -49.27558,0 24.637793,24.637793 0 1 1 49.27558,0 z"
       transform="translate(-332.84903,90)" />
    <path
       inkscape:label="#path3021"
       transform="translate(627.15097,90)"
       d="m 469.48682,243.76253 a 24.637793,24.637793 0 1 1 -49.27558,0 24.637793,24.637793 0 1 1 49.27558,0 z"
       sodipodi:ry="24.637793"
       sodipodi:rx="24.637793"
       sodipodi:cy="243.76253"
       sodipodi:cx="444.84903"
       id="is.particle.7"
       style="fill:#00000a;fill-opacity:1;stroke:#000000;stroke-width:1;stroke-linecap:butt;stroke-linejoin:round;stroke-miterlimit:4;stroke-opacity:1;stroke-dasharray:none;stroke-dashoffset:0"
       sodipodi:type="arc" />
    <path
       inkscape:label="#path3023"
       transform="translate(467.15097,90)"
       d="m 469.48682,243.76253 a 24.637793,24.637793 0 1 1 -49.27558,0 24.637793,24.637793 0 1 1 49.27558,0 z"
       sodipodi:ry="24.637793"
       sodipodi:rx="24.637793"
       sodipodi:cy="243.76253"
       sodipodi:cx="444.84903"
       id="is.particle.5"
       style="fill:#00000a;fill-opacity:1;stroke:#000000;stroke-width:1;stroke-linecap:butt;stroke-linejoin:round;stroke-miterlimit:4;stroke-opacity:1;stroke-dasharray:none;stroke-dashoffset:0"
       sodipodi:type="arc" />
    <path
       inkscape:label="#path3025"
       sodipodi:type="arc"
       style="fill:#00000a;fill-opacity:1;stroke:#000000;stroke-width:1;stroke-linecap:butt;stroke-linejoin:round;stroke-miterlimit:4;stroke-opacity:1;stroke-dasharray:none;stroke-dashoffset:0"
       id="is.particle.4"
       sodipodi:cx="444.84903"
       sodipodi:cy="243.76253"
       sodipodi:rx="24.637793"
       sodipodi:ry="24.637793"
       d="m 469.48682,243.76253 a 24.637793,24.637793 0 1 1 -49.27558,0 24.637793,24.637793 0 1 1 49.27558,0 z"
       transform="translate(387.15097,90)" />
    <path
       inkscape:label="#path3027"
       sodipodi:type="arc"
       style="fill:#00000a;fill-opacity:1;stroke:#000000;stroke-width:1;stroke-linecap:butt;stroke-linejoin:round;stroke-miterlimit:4;stroke-opacity:1;stroke-dasharray:none;stroke-dashoffset:0"
       id="is.particle.6"
       sodipodi:cx="444.84903"
       sodipodi:cy="243.76253"
       sodipodi:rx="24.637793"
       sodipodi:ry="24.637793"
       d="m 469.48682,243.76253 a 24.637793,24.637793 0 1 1 -49.27558,0 24.637793,24.637793 0 1 1 49.27558,0 z"
       transform="translate(547.15097,90)" />
    <path
       inkscape:label="#path3029"
       sodipodi:type="arc"
       style="fill:#00000a;fill-opacity:1;stroke:#000000;stroke-width:1;stroke-linecap:butt;stroke-linejoin:round;stroke-miterlimit:4;stroke-opacity:1;stroke-dasharray:none;stroke-dashoffset:0"
       id="is.particle.2"
       sodipodi:cx="444.84903"
       sodipodi:cy="243.76253"
       sodipodi:rx="24.637793"
       sodipodi:ry="24.637793"
       d="m 469.48682,243.76253 a 24.637793,24.637793 0 1 1 -49.27558,0 24.637793,24.637793 0 1 1 49.27558,0 z"
       transform="translate(227.15097,90)" />
    <path
       inkscape:label="#path3031"
       transform="translate(307.15097,90)"
       d="m 469.48682,243.76253 a 24.637793,24.637793 0 1 1 -49.27558,0 24.637793,24.637793 0 1 1 49.27558,0 z"
       sodipodi:ry="24.637793"
       sodipodi:rx="24.637793"
       sodipodi:cy="243.76253"
       sodipodi:cx="444.84903"
       id="is.particle.3"
       style="fill:#00000a;fill-opacity:1;stroke:#000000;stroke-width:1;stroke-linecap:butt;stroke-linejoin:round;stroke-miterlimit:4;stroke-opacity:1;stroke-dasharray:none;stroke-dashoffset:0"
       sodipodi:type="arc" />
    <path
       inkscape:label="#path3033"
       sodipodi:type="arc"
       style="fill:#00000a;fill-opacity:1;stroke:#000000;stroke-width:1;stroke-linecap:butt;stroke-linejoin:round;stroke-miterlimit:4;stroke-opacity:1;stroke-dasharray:none;stroke-dashoffset:0"
       id="is.particle.8"
       sodipodi:cx="444.84903"
       sodipodi:cy="243.76253"
       sodipodi:rx="24.637793"
       sodipodi:ry="24.637793"
       d="m 469.48682,243.76253 a 24.637793,24.637793 0 1 1 -49.27558,0 24.637793,24.637793 0 1 1 49.27558,0 z"
       transform="translate(707.15097,90)" />
    <path
       inkscape:label="#path3035"
       transform="translate(-572.84903,90)"
       d="m 469.48682,243.76253 a 24.637793,24.637793 0 1 1 -49.27558,0 24.637793,24.637793 0 1 1 49.27558,0 z"
       sodipodi:ry="24.637793"
       sodipodi:rx="24.637793"
       sodipodi:cy="243.76253"
       sodipodi:cx="444.84903"
       id="is.particle.-8"
       style="fill:#00000a;fill-opacity:1;stroke:#000000;stroke-width:1;stroke-linecap:butt;stroke-linejoin:round;stroke-miterlimit:4;stroke-opacity:1;stroke-dasharray:none;stroke-dashoffset:0"
       sodipodi:type="arc" />
    <path
       inkscape:label="#path3037"
       sodipodi:type="arc"
       style="fill:#00000a;fill-opacity:1;stroke:#000000;stroke-width:1;stroke-linecap:butt;stroke-linejoin:round;stroke-miterlimit:4;stroke-opacity:1;stroke-dasharray:none;stroke-dashoffset:0"
       id="is.particle.-9"
       sodipodi:cx="444.84903"
       sodipodi:cy="243.76253"
       sodipodi:rx="24.637793"
       sodipodi:ry="24.637793"
       d="m 469.48682,243.76253 a 24.637793,24.637793 0 1 1 -49.27558,0 24.637793,24.637793 0 1 1 49.27558,0 z"
       transform="translate(-652.84903,90)" />
    <path
       inkscape:label="#path3039"
       transform="translate(787.15097,90)"
       d="m 469.48682,243.76253 a 24.637793,24.637793 0 1 1 -49.27558,0 24.637793,24.637793 0 1 1 49.27558,0 z"
       sodipodi:ry="24.637793"
       sodipodi:rx="24.637793"
       sodipodi:cy="243.76253"
       sodipodi:cx="444.84903"
       id="is.particle.9"
       style="fill:#00000a;fill-opacity:1;stroke:#000000;stroke-width:1;stroke-linecap:butt;stroke-linejoin:round;stroke-miterlimit:4;stroke-opacity:1;stroke-dasharray:none;stroke-dashoffset:0"
       sodipodi:type="arc" />
  </g>
  <g
     id="g8201"
     transform="translate(43.000501,389.1965)">
    <polygon
       id="polygon8189"
       points="116.846,84.447 325.539,67.624 307.894,270.393 121.275,318.264 "
       style="fill:#709e32" />
    <polygon
       id="polygon8191"
       points="116.846,84.447 121.275,318.264 42.332,228.883 32.46,52.145 "
       style="fill:#466320" />
    <polygon
       id="polygon8193"
       points="325.539,67.624 116.846,84.447 32.46,52.145 197.515,43.343 "
       style="fill:#567927" />
  </g>
  <text
     xml:space="preserve"
     style="font-size:58.56400299px;font-style:normal;font-variant:normal;font-weight:normal;font-stretch:normal;text-align:start;line-height:125%;letter-spacing:0px;word-spacing:0px;writing-mode:lr-tb;text-anchor:start;fill:#000000;fill-opacity:1;stroke:none;font-family:Arial;-inkscape-font-specification:Arial"
     x="478.78568"
     y="603.9314"
     id="text8206"
     sodipodi:linespacing="125%"><tspan
       sodipodi:role="line"
       id="tspan8208"
       x="478.78568"
       y="603.9314">6.023 • 10<tspan
   style="font-size:38.06713486px;baseline-shift:super"
   id="tspan8212">23</tspan> ≈ ∞</tspan></text>
</svg>
